<svg width="140" height="36" viewBox="0 0 140 36" fill="none" xmlns="http://www.w3.org/2000/svg">
<g clip-path="url(#clip0_177_1127)">
<path d="M114.772 23.3158C114.772 16.279 120.333 10.6294 127.386 10.6294C134.438 10.6294 140 16.279 140 23.3158C140 23.9605 139.95 24.6052 139.852 25.1998H120.532C121.128 28.3207 123.959 30.8494 127.534 30.8494C130.066 30.8494 132.103 30.0566 133.146 28.4711H139.653C137.964 32.9793 133.146 36.0023 127.534 36.0023C120.333 36.0023 114.772 30.3527 114.772 23.3158ZM134.041 20.5412C133.297 17.6663 130.614 15.6844 127.386 15.6844C124.158 15.6844 121.475 17.6663 120.731 20.5412H134.041Z" fill="white"/>
<path d="M104.781 0.717529H110.244V10.9255H114.95V16.0784H110.244V35.7015H104.781V0.717529Z" fill="white"/>
<path d="M76.7649 23.3158C76.7649 15.8826 82.1279 10.6294 89.2306 10.6294C92.5092 10.6294 95.29 12.1648 96.3334 13.5043V10.9278H101.895V35.7039H96.3334V33.1274C95.29 34.4646 92.5594 36.0023 89.2306 36.0023C82.1279 36.0023 76.7649 30.7491 76.7649 23.3158ZM96.532 23.3158C96.532 18.7575 93.4521 15.8826 89.4293 15.8826C85.4064 15.8826 82.1279 18.7575 82.1279 23.3158C82.1279 27.8742 85.306 30.7491 89.4293 30.7491C93.5526 30.7491 96.532 27.8742 96.532 23.3158Z" fill="white"/>
<path d="M50.0616 23.3158C50.0616 16.279 55.6233 10.6294 62.6758 10.6294C69.7283 10.6294 75.29 16.279 75.29 23.3158C75.29 23.9605 75.2397 24.6052 75.1416 25.1998H55.8219C56.4178 28.3207 59.2489 30.8494 62.8242 30.8494C65.3562 30.8494 67.3927 30.0566 68.4361 28.4711H74.9429C73.2534 32.9793 68.4361 36.0023 62.8242 36.0023C55.6233 36.0023 50.0616 30.3527 50.0616 23.3158ZM69.3311 20.5412C68.5868 17.6663 65.9041 15.6844 62.6758 15.6844C59.4475 15.6844 56.7648 17.6663 56.0205 20.5412H69.3311Z" fill="white"/>
<path d="M37.1141 10.9255H42.5776V14.1968C43.4223 12.2149 45.4086 10.6294 48.3881 10.6294C49.5799 10.6294 50.1757 10.7775 50.573 10.9278V16.6753C50.0273 16.427 49.1826 16.279 48.2876 16.279C45.0091 16.279 42.5753 18.459 42.5753 22.4229V35.7039H37.1118V10.9255H37.1141Z" fill="white"/>
<path d="M29.9406 17.5501V17.8508C29.9406 24.4799 24.5365 29.8721 17.8927 29.8721C11.2489 29.8721 5.84475 24.4799 5.84475 17.8508C5.84475 11.2217 11.2466 5.82953 17.8904 5.82953C21.5388 5.82953 24.9521 7.45377 27.2534 10.2877L27.4658 10.5474L31.621 6.40132L31.4384 6.18946C28.032 2.25527 23.0959 0 17.8904 0C8.02512 0 0 8.00734 0 17.8508C0 27.6942 8.02512 35.7016 17.8904 35.7016C27.7557 35.7016 35.7808 27.6942 35.7808 17.8508V17.5501H29.9384H29.9406Z" fill="white"/>
</g>
<defs>
<clipPath id="clip0_177_1127">
<rect width="140" height="36" fill="white"/>
</clipPath>
</defs>
</svg>
